<mxfile host="Electron" modified="2024-05-28T18:03:49.042Z" agent="Mozilla/5.0 (Windows NT 10.0; Win64; x64) AppleWebKit/537.36 (KHTML, like Gecko) draw.io/24.4.6 Chrome/124.0.6367.207 Electron/30.0.6 Safari/537.36" etag="bXW0GArtNTCPKyGMumd-" version="24.4.6" type="device">
  <diagram name="Страница — 1" id="7VZPwSxA6XqwchH3p76y">
    <mxGraphModel dx="2261" dy="844" grid="1" gridSize="10" guides="1" tooltips="1" connect="1" arrows="1" fold="1" page="1" pageScale="1" pageWidth="827" pageHeight="1169" math="0" shadow="0">
      <root>
        <mxCell id="0" />
        <mxCell id="1" parent="0" />
        <mxCell id="6Lf-pYscI2B2oA5p4kR5-13" style="edgeStyle=orthogonalEdgeStyle;rounded=0;orthogonalLoop=1;jettySize=auto;html=1;exitX=0.25;exitY=0;exitDx=0;exitDy=0;entryX=0.25;entryY=1;entryDx=0;entryDy=0;" parent="1" source="6Lf-pYscI2B2oA5p4kR5-1" target="6Lf-pYscI2B2oA5p4kR5-4" edge="1">
          <mxGeometry relative="1" as="geometry" />
        </mxCell>
        <mxCell id="6Lf-pYscI2B2oA5p4kR5-1" value="&lt;font style=&quot;font-size: 16px;&quot;&gt;API языковых абстракций&lt;/font&gt;" style="rounded=0;whiteSpace=wrap;html=1;" parent="1" vertex="1">
          <mxGeometry x="320" y="440" width="160" height="80" as="geometry" />
        </mxCell>
        <mxCell id="6Lf-pYscI2B2oA5p4kR5-18" value="" style="edgeStyle=orthogonalEdgeStyle;rounded=0;orthogonalLoop=1;jettySize=auto;html=1;" parent="1" source="6Lf-pYscI2B2oA5p4kR5-2" target="6Lf-pYscI2B2oA5p4kR5-3" edge="1">
          <mxGeometry relative="1" as="geometry" />
        </mxCell>
        <mxCell id="6Lf-pYscI2B2oA5p4kR5-19" value="" style="edgeStyle=orthogonalEdgeStyle;rounded=0;orthogonalLoop=1;jettySize=auto;html=1;" parent="1" source="6Lf-pYscI2B2oA5p4kR5-2" target="6Lf-pYscI2B2oA5p4kR5-1" edge="1">
          <mxGeometry relative="1" as="geometry" />
        </mxCell>
        <mxCell id="6Lf-pYscI2B2oA5p4kR5-2" value="Пользователь" style="shape=umlActor;verticalLabelPosition=bottom;verticalAlign=top;html=1;outlineConnect=0;" parent="1" vertex="1">
          <mxGeometry x="580" y="440" width="40" height="80" as="geometry" />
        </mxCell>
        <mxCell id="6Lf-pYscI2B2oA5p4kR5-20" style="edgeStyle=orthogonalEdgeStyle;rounded=0;orthogonalLoop=1;jettySize=auto;html=1;exitX=0.25;exitY=0;exitDx=0;exitDy=0;entryX=1;entryY=0.5;entryDx=0;entryDy=0;" parent="1" source="6Lf-pYscI2B2oA5p4kR5-3" target="6Lf-pYscI2B2oA5p4kR5-7" edge="1">
          <mxGeometry relative="1" as="geometry" />
        </mxCell>
        <mxCell id="6Lf-pYscI2B2oA5p4kR5-3" value="&lt;font style=&quot;font-size: 16px;&quot;&gt;API графа инструкций&lt;/font&gt;" style="rounded=0;whiteSpace=wrap;html=1;" parent="1" vertex="1">
          <mxGeometry x="720" y="440" width="160" height="80" as="geometry" />
        </mxCell>
        <mxCell id="6Lf-pYscI2B2oA5p4kR5-9" style="edgeStyle=orthogonalEdgeStyle;rounded=0;orthogonalLoop=1;jettySize=auto;html=1;exitX=1;exitY=0.25;exitDx=0;exitDy=0;entryX=0;entryY=0.5;entryDx=0;entryDy=0;" parent="1" source="6Lf-pYscI2B2oA5p4kR5-4" target="6Lf-pYscI2B2oA5p4kR5-8" edge="1">
          <mxGeometry relative="1" as="geometry" />
        </mxCell>
        <mxCell id="6Lf-pYscI2B2oA5p4kR5-14" style="edgeStyle=orthogonalEdgeStyle;rounded=0;orthogonalLoop=1;jettySize=auto;html=1;exitX=0.75;exitY=1;exitDx=0;exitDy=0;entryX=0.75;entryY=0;entryDx=0;entryDy=0;" parent="1" source="6Lf-pYscI2B2oA5p4kR5-4" target="6Lf-pYscI2B2oA5p4kR5-1" edge="1">
          <mxGeometry relative="1" as="geometry" />
        </mxCell>
        <mxCell id="MIoEc4X7YevY-hMl7RMd-63" style="edgeStyle=orthogonalEdgeStyle;rounded=0;orthogonalLoop=1;jettySize=auto;html=1;exitX=0.5;exitY=0;exitDx=0;exitDy=0;entryX=0.5;entryY=1;entryDx=0;entryDy=0;" edge="1" parent="1" source="6Lf-pYscI2B2oA5p4kR5-4" target="6Lf-pYscI2B2oA5p4kR5-23">
          <mxGeometry relative="1" as="geometry" />
        </mxCell>
        <mxCell id="6Lf-pYscI2B2oA5p4kR5-4" value="&lt;font style=&quot;font-size: 16px;&quot;&gt;Промежуточное представление&lt;/font&gt;" style="rounded=0;whiteSpace=wrap;html=1;" parent="1" vertex="1">
          <mxGeometry x="320" y="260" width="160" height="80" as="geometry" />
        </mxCell>
        <mxCell id="6Lf-pYscI2B2oA5p4kR5-10" style="edgeStyle=orthogonalEdgeStyle;rounded=0;orthogonalLoop=1;jettySize=auto;html=1;exitX=0;exitY=0.5;exitDx=0;exitDy=0;entryX=1;entryY=0.75;entryDx=0;entryDy=0;" parent="1" source="6Lf-pYscI2B2oA5p4kR5-7" target="6Lf-pYscI2B2oA5p4kR5-4" edge="1">
          <mxGeometry relative="1" as="geometry" />
        </mxCell>
        <mxCell id="6Lf-pYscI2B2oA5p4kR5-7" value="&lt;font style=&quot;font-size: 16px;&quot;&gt;Генератор байткода&lt;/font&gt;" style="rounded=0;whiteSpace=wrap;html=1;" parent="1" vertex="1">
          <mxGeometry x="520" y="320" width="160" height="80" as="geometry" />
        </mxCell>
        <mxCell id="6Lf-pYscI2B2oA5p4kR5-11" style="edgeStyle=orthogonalEdgeStyle;rounded=0;orthogonalLoop=1;jettySize=auto;html=1;exitX=1;exitY=0.5;exitDx=0;exitDy=0;entryX=0.75;entryY=0;entryDx=0;entryDy=0;" parent="1" source="6Lf-pYscI2B2oA5p4kR5-8" target="6Lf-pYscI2B2oA5p4kR5-3" edge="1">
          <mxGeometry relative="1" as="geometry" />
        </mxCell>
        <mxCell id="6Lf-pYscI2B2oA5p4kR5-8" value="&lt;font style=&quot;font-size: 16px;&quot;&gt;Построитель графа&lt;/font&gt;" style="rounded=0;whiteSpace=wrap;html=1;" parent="1" vertex="1">
          <mxGeometry x="520" y="200" width="160" height="80" as="geometry" />
        </mxCell>
        <mxCell id="MIoEc4X7YevY-hMl7RMd-64" style="edgeStyle=orthogonalEdgeStyle;rounded=0;orthogonalLoop=1;jettySize=auto;html=1;exitX=1;exitY=0.5;exitDx=0;exitDy=0;entryX=0;entryY=0.5;entryDx=0;entryDy=0;" edge="1" parent="1" source="6Lf-pYscI2B2oA5p4kR5-22" target="6Lf-pYscI2B2oA5p4kR5-4">
          <mxGeometry relative="1" as="geometry" />
        </mxCell>
        <mxCell id="6Lf-pYscI2B2oA5p4kR5-22" value="&lt;font style=&quot;font-size: 16px;&quot;&gt;Бинарный файл&lt;/font&gt;" style="rounded=0;whiteSpace=wrap;html=1;" parent="1" vertex="1">
          <mxGeometry x="120" y="260" width="160" height="80" as="geometry" />
        </mxCell>
        <mxCell id="6Lf-pYscI2B2oA5p4kR5-23" value="&lt;font style=&quot;font-size: 16px;&quot;&gt;Измененный бинарный файл&lt;/font&gt;" style="rounded=0;whiteSpace=wrap;html=1;" parent="1" vertex="1">
          <mxGeometry x="320" y="140" width="160" height="80" as="geometry" />
        </mxCell>
        <mxCell id="6Lf-pYscI2B2oA5p4kR5-36" style="edgeStyle=orthogonalEdgeStyle;rounded=0;orthogonalLoop=1;jettySize=auto;html=1;exitX=1;exitY=0.5;exitDx=0;exitDy=0;entryX=0;entryY=0.25;entryDx=0;entryDy=0;" parent="1" source="6Lf-pYscI2B2oA5p4kR5-30" target="6Lf-pYscI2B2oA5p4kR5-22" edge="1">
          <mxGeometry relative="1" as="geometry" />
        </mxCell>
        <mxCell id="6Lf-pYscI2B2oA5p4kR5-30" value="&lt;font style=&quot;font-size: 16px;&quot;&gt;Исходный файл на языке 1&lt;/font&gt;" style="rounded=0;whiteSpace=wrap;html=1;" parent="1" vertex="1">
          <mxGeometry x="-80" y="140" width="160" height="80" as="geometry" />
        </mxCell>
        <mxCell id="6Lf-pYscI2B2oA5p4kR5-37" style="edgeStyle=orthogonalEdgeStyle;rounded=0;orthogonalLoop=1;jettySize=auto;html=1;exitX=1;exitY=0.5;exitDx=0;exitDy=0;entryX=0;entryY=0.5;entryDx=0;entryDy=0;" parent="1" source="6Lf-pYscI2B2oA5p4kR5-31" target="6Lf-pYscI2B2oA5p4kR5-22" edge="1">
          <mxGeometry relative="1" as="geometry" />
        </mxCell>
        <mxCell id="6Lf-pYscI2B2oA5p4kR5-31" value="&lt;span style=&quot;font-size: 16px;&quot;&gt;Исходный файл на языке 2&lt;/span&gt;" style="rounded=0;whiteSpace=wrap;html=1;" parent="1" vertex="1">
          <mxGeometry x="-80" y="260" width="160" height="80" as="geometry" />
        </mxCell>
        <mxCell id="6Lf-pYscI2B2oA5p4kR5-38" style="edgeStyle=orthogonalEdgeStyle;rounded=0;orthogonalLoop=1;jettySize=auto;html=1;exitX=1;exitY=0.5;exitDx=0;exitDy=0;entryX=0;entryY=0.75;entryDx=0;entryDy=0;" parent="1" source="6Lf-pYscI2B2oA5p4kR5-32" target="6Lf-pYscI2B2oA5p4kR5-22" edge="1">
          <mxGeometry relative="1" as="geometry" />
        </mxCell>
        <mxCell id="6Lf-pYscI2B2oA5p4kR5-32" value="&lt;span style=&quot;font-size: 16px;&quot;&gt;Исходный файл на языке N&lt;/span&gt;" style="rounded=0;whiteSpace=wrap;html=1;" parent="1" vertex="1">
          <mxGeometry x="-80" y="380" width="160" height="80" as="geometry" />
        </mxCell>
      </root>
    </mxGraphModel>
  </diagram>
</mxfile>
